<svg id="Capa_1" enable-background="new 0 0 512 512" height="512" viewBox="0 0 512 512" width="512" xmlns="http://www.w3.org/2000/svg"><g><g><g clip-rule="evenodd" fill-rule="evenodd"><path d="m256 434.947 248.5-248.5h-497z" fill="#fcc062"/><path d="m7.5 186.447h497l-.001-32.545c-18.674 0-29.239-19.955-49.7-19.955-20.46 0-31.026 19.955-49.7 19.955s-29.239-19.955-49.7-19.955c-20.46 0-31.026 19.955-49.7 19.955s-29.24-19.955-49.7-19.955-31.026 19.955-49.7 19.955-29.24-19.955-49.7-19.955-31.027 19.955-49.7 19.955-29.239-19.955-49.7-19.955c-20.46 0-31.026 19.955-49.7 19.955z" fill="#8cc63f"/><path d="m106.9 153.902c18.674 0 29.24-19.955 49.7-19.955s31.026 19.955 49.7 19.955 29.24-19.955 49.7-19.955c20.461 0 31.027 19.955 49.7 19.955s29.239-19.955 49.7-19.955 31.027 19.955 49.7 19.955 29.24-19.955 49.7-19.955c20.461 0 31.026 19.955 49.7 19.955v-60c-18.674 0-29.239-19.955-49.7-19.955-20.46 0-31.026 19.955-49.7 19.955s-29.239-19.955-49.7-19.955c-20.46 0-31.026 19.955-49.7 19.955s-29.24-19.955-49.7-19.955-31.026 19.955-49.7 19.955-29.24-19.955-49.7-19.955-31.027 19.955-49.7 19.955-29.24-19.955-49.7-19.955-31.026 19.955-49.7 19.955v60c18.674 0 29.239-19.955 49.7-19.955 20.46 0 31.026 19.955 49.7 19.955z" fill="#c69c6d"/><path d="m106.9 153.902c18.674 0 29.24-19.955 49.7-19.955s31.026 19.955 49.7 19.955 29.24-19.955 49.7-19.955c20.461 0 31.027 19.955 49.7 19.955s29.239-19.955 49.7-19.955 31.027 19.955 49.7 19.955 29.24-19.955 49.7-19.955c20.461 0 31.026 19.955 49.7 19.955v-15c-6.479 0-15.178-7.145-20.577-10.515-9.112-5.69-18.184-9.44-29.123-9.44s-20.011 3.75-29.123 9.44c-5.398 3.371-14.098 10.515-20.577 10.515s-15.178-7.145-20.577-10.515c-9.112-5.69-18.184-9.44-29.123-9.44s-20.011 3.75-29.123 9.44c-5.398 3.371-14.098 10.515-20.577 10.515-6.478 0-15.179-7.145-20.577-10.515-9.112-5.69-18.184-9.44-29.123-9.44s-20.011 3.75-29.123 9.44c-5.398 3.371-14.099 10.515-20.577 10.515-6.479 0-15.179-7.145-20.577-10.515-9.112-5.69-18.184-9.44-29.123-9.44s-20.011 3.75-29.123 9.44c-5.398 3.371-14.099 10.515-20.577 10.515-6.479 0-15.178-7.145-20.577-10.515-9.112-5.69-18.184-9.44-29.123-9.44-10.169 0-18.726 3.242-27.2 8.269v-42.18c-6.953 4.592-13.858 8.866-22.5 8.866v60c18.674 0 29.239-19.955 49.7-19.955 20.46 0 31.026 19.955 49.7 19.955z" fill="#957552"/><path d="m30 145.037c-6.953 4.592-13.858 8.865-22.5 8.865v32.545h497v-15h-474.5z" fill="#39b54a"/><path d="m256 434.947 11.25-11.25-237.25-237.25h-22.5z" fill="#fbb03b"/></g><g><path d="m447.3 96.447h15v15h-15z" fill="#fff"/></g></g><g><path d="m25.606 193.947h222.894v-15h-233.5v-18.395c7.868-1.792 14.392-6.114 20.307-10.034 7.346-4.868 13.688-9.071 21.894-9.071 8.204 0 14.548 4.204 21.893 9.071 7.698 5.102 16.424 10.884 27.807 10.884s20.109-5.782 27.808-10.884c7.345-4.867 13.688-9.071 21.893-9.071s14.548 4.204 21.894 9.071c7.698 5.102 16.424 10.884 27.807 10.884s20.109-5.782 27.808-10.884c7.345-4.867 13.688-9.071 21.893-9.071s14.548 4.204 21.893 9.071c7.698 5.102 16.425 10.884 27.808 10.884 11.382 0 20.108-5.782 27.807-10.883 5.417-3.589 10.533-6.979 16.238-8.381l-3.579-14.566c-8.236 2.023-14.988 6.497-20.944 10.443-6.792 4.5-12.657 8.387-19.521 8.387s-12.729-3.887-19.521-8.388c-8.183-5.422-17.456-11.567-30.179-11.567s-21.996 6.146-30.179 11.567c-6.792 4.501-12.657 8.388-19.521 8.388s-12.729-3.887-19.521-8.388c-8.182-5.422-17.455-11.567-30.179-11.567-12.723 0-21.997 6.146-30.179 11.567-6.792 4.501-12.657 8.388-19.521 8.388-6.863 0-12.729-3.887-19.521-8.388-8.182-5.422-17.456-11.567-30.179-11.567-12.724 0-21.997 6.146-30.179 11.567-6.792 4.501-12.657 8.388-19.521 8.388h-7.506v43.151l121.144 121.144 10.606-10.606z"/><path d="m504.499 146.402c-6.863 0-12.729-3.887-19.521-8.388-8.182-5.422-17.455-11.567-30.179-11.567-12.723 0-21.997 6.146-30.179 11.567-6.792 4.501-12.657 8.388-19.521 8.388s-12.73-3.887-19.522-8.387c-5.956-3.947-12.707-8.42-20.942-10.443l-3.579 14.566c5.703 1.401 10.82 4.792 16.236 8.381 7.699 5.101 16.425 10.883 27.808 10.883s20.109-5.782 27.808-10.884c7.345-4.867 13.688-9.071 21.893-9.071s14.548 4.204 21.893 9.071c5.916 3.92 12.438 8.242 20.307 10.034l-.001 18.395h-233.5v15h222.894l-230.394 230.393-113.644-113.643-10.606 10.606 124.25 124.25 256-256-.001-43.151z"/><path d="m106.899 101.402c11.383 0 20.109-5.782 27.808-10.884 7.345-4.867 13.688-9.071 21.893-9.071s14.548 4.204 21.894 9.071c7.698 5.102 16.424 10.884 27.807 10.884s20.109-5.782 27.808-10.884c7.345-4.867 13.688-9.071 21.893-9.071s14.548 4.204 21.893 9.071c7.698 5.102 16.425 10.884 27.808 10.884s20.108-5.782 27.807-10.884c7.345-4.868 13.688-9.071 21.893-9.071s14.549 4.204 21.894 9.071c7.698 5.102 16.424 10.884 27.807 10.884s20.109-5.782 27.808-10.884c7.345-4.867 13.688-9.071 21.893-9.071s14.548 4.204 21.893 9.071c5.916 3.92 12.438 8.242 20.307 10.034l-.005 30.851h15l-.001-45h-7.5c-6.863 0-12.729-3.887-19.521-8.387-8.182-5.422-17.455-11.568-30.179-11.568-12.723 0-21.997 6.146-30.179 11.567-6.792 4.501-12.657 8.388-19.521 8.388-6.863 0-12.729-3.887-19.521-8.387-8.182-5.422-17.456-11.568-30.18-11.568s-21.997 6.146-30.179 11.568c-6.791 4.5-12.657 8.387-19.521 8.387s-12.729-3.887-19.521-8.388c-8.183-5.422-17.456-11.567-30.179-11.567s-21.996 6.146-30.179 11.567c-6.792 4.501-12.657 8.388-19.521 8.388s-12.729-3.887-19.521-8.388c-8.182-5.422-17.455-11.567-30.179-11.567-12.723 0-21.997 6.146-30.179 11.567-6.792 4.501-12.657 8.388-19.521 8.388-6.863 0-12.729-3.887-19.521-8.387-5.956-3.947-12.707-8.419-20.943-10.443l-3.579 14.566c5.704 1.402 10.82 4.792 16.237 8.381 7.699 5.1 16.426 10.882 27.807 10.882z"/><path d="m15 100.552c7.868-1.792 14.392-6.113 20.308-10.033 5.416-3.589 10.533-6.979 16.237-8.381l-3.579-14.566c-8.237 2.024-14.987 6.497-20.943 10.443-6.792 4.5-12.658 8.387-19.522 8.387h-7.501v45.001h15z"/><path d="m192.251 223.946h157.498v15h-157.498z"/><path d="m162.251 223.946h15v15h-15z" fill="#fff"/><path d="m304.75 261.446h15v15h-15z" fill="#fff"/><path d="m192.25 261.446h97.5v15h-97.5z"/><path d="m252.25 298.945h37.5v15h-37.5z"/><path d="m222.25 298.945h15v15h-15z" fill="#fff"/></g></g></svg>